<?xml version="1.0" encoding="UTF-8" standalone="no"?>
<svg
   xmlns:dc="http://purl.org/dc/elements/1.1/"
   xmlns:cc="http://creativecommons.org/ns#"
   xmlns:rdf="http://www.w3.org/1999/02/22-rdf-syntax-ns#"
   xmlns:svg="http://www.w3.org/2000/svg"
   xmlns="http://www.w3.org/2000/svg"
   xml:space="preserve"
   viewBox="0 0 311.541 311.541"
   height="311.54099"
   width="311.54099"
   y="0px"
   x="0px"
   version="1.1"><metadata><rdf:RDF><cc:Work
         rdf:about=""><dc:format>image/svg+xml</dc:format><dc:type
           rdf:resource="http://purl.org/dc/dcmitype/StillImage" /><dc:title></dc:title></cc:Work></rdf:RDF></metadata><defs>
		
	</defs><path
     style="fill:#ffffff"
     id="path2"
     d="m 155.77099,26.330993 c -86.030997,0 -155.7709974462891,69.74 -155.7709974462891,155.770997 0,37.488 13.2500004462891,71.883 35.3140004462891,98.761 3.404,-27.256 30.627,-50.308 68.799997,-61.225 13.946,12.994 31.96,20.878 51.656,20.878 19.233,0 36.894,-7.487 50.698,-19.936 38.503,11.871 65.141,36.27 66.017,64.63 24.284,-27.472 39.056,-63.555 39.056,-103.108 0,-86.030997 -69.74,-155.770997 -155.77,-155.770997 z m 0,195.737997 c -9.944,0 -19.314,-2.732 -27.634,-7.464 -20.05,-11.409 -33.854997,-34.756 -33.854997,-61.711 0,-38.143 27.582997,-69.175997 61.488997,-69.175997 33.909,0 61.489,31.032997 61.489,69.175997 0,27.369 -14.237,51.004 -34.786,62.215 -8.095,4.414 -17.128,6.96 -26.703,6.96 z" /></svg>