<svg xmlns="http://www.w3.org/2000/svg" viewBox="0 0 55.56 18.52">
  <path d="M2.15.65V2.5H.26v15.68H18.3V.65zM39.11.7a3.1 3.1 0 0 0-2.15.69c-.5.45-.76 1.04-.76 1.75 0 .66.26 1.15.78 1.48.3.2.8.37 1.53.53l1.1.24c.6.13 1.04.29 1.32.47s.42.49.42.92c0 .57-.33.97-.99 1.2-.34.11-.72.17-1.13.17-.92 0-1.57-.26-1.94-.79-.19-.28-.3-.64-.32-1.1h-1.04c-.01.86.27 1.54.84 2.04.58.5 1.37.75 2.38.75a4.5 4.5 0 0 0 2.29-.56c.66-.38.98-1 .98-1.88 0-.7-.25-1.25-.77-1.62a4 4 0 0 0-1.28-.5l-1.14-.25a7.48 7.48 0 0 1-1.48-.43.9.9 0 0 1-.5-.85c0-.36.14-.66.43-.93.28-.27.75-.4 1.4-.4.8 0 1.38.2 1.71.62.19.23.3.55.36.98h1.04c0-.88-.3-1.52-.9-1.92A3.8 3.8 0 0 0 39.1.7zM20.45.9v7.92h1.05v-6.4l4.18 6.4h1.24V.9h-1.05v6.42L21.75.9zm8.31 0v7.92h6.03v-.94h-4.95V5.19h4.5v-.91h-4.5v-2.4h4.86V.9zm14.4 0v.95h2.74v6.97h1.12V1.85h2.74V.9z" fill="#d35fbc"/>
  <path d="M2.16 2.49v6.4h.85V3.72L6.4 8.9h1V2.49h-.84v5.2l-3.33-5.2zm6.73 0v6.4h.9V6.2h2.07c.66 0 1.15-.19 1.47-.55.32-.38.48-.81.48-1.31 0-.59-.17-1.04-.53-1.36a2.04 2.04 0 0 0-1.42-.48zm.9.75h1.77a2 2 0 0 1 .81.13c.36.17.54.49.54.96 0 .42-.12.71-.37.88a1.8 1.8 0 0 1-.98.25H9.78Z" fill="#fff"/>
  <path d="M44.62 10.62a2.9 2.9 0 0 0-2 .64c-.48.43-.71.97-.71 1.63 0 .61.24 1.08.72 1.38.28.18.75.34 1.43.5l1.02.22c.56.12.97.27 1.23.43.26.17.4.46.4.86 0 .54-.32.91-.93 1.12-.32.1-.67.16-1.05.16-.86 0-1.47-.25-1.8-.73-.19-.27-.29-.6-.31-1.02h-.97c0 .8.25 1.42.79 1.89.53.47 1.27.7 2.21.7a4.1 4.1 0 0 0 2.13-.53c.62-.35.92-.93.92-1.75 0-.65-.24-1.16-.72-1.5-.28-.2-.68-.35-1.19-.47l-1.06-.23a6.98 6.98 0 0 1-1.38-.4.84.84 0 0 1-.47-.8c0-.33.13-.61.4-.86s.7-.37 1.3-.37c.76 0 1.3.19 1.6.57.17.21.28.52.33.91h.97c0-.82-.28-1.41-.84-1.79a3.53 3.53 0 0 0-2.02-.56zm7.07 0a2.9 2.9 0 0 0-2 .64c-.48.43-.72.97-.72 1.63 0 .61.25 1.08.73 1.38.28.18.75.34 1.42.5l1.03.22c.56.12.97.27 1.23.43.26.17.39.46.39.86 0 .54-.3.91-.92 1.12-.32.1-.67.16-1.05.16-.86 0-1.47-.25-1.8-.73-.19-.27-.29-.6-.31-1.02h-.97c0 .8.25 1.42.79 1.89.53.47 1.27.7 2.21.7a4.1 4.1 0 0 0 2.13-.53c.62-.35.92-.93.92-1.75 0-.65-.24-1.16-.72-1.5-.28-.2-.68-.35-1.19-.47l-1.06-.23a6.98 6.98 0 0 1-1.38-.4.84.84 0 0 1-.47-.8c0-.33.13-.61.4-.86.26-.25.7-.37 1.3-.37.76 0 1.29.19 1.6.57.17.21.28.52.33.91h.97c0-.82-.28-1.41-.84-1.79a3.53 3.53 0 0 0-2.02-.56zm-41.15.02v7.54h7.76v-7.54zm9.72.17v7.38h1.03v-3.12h2.38c.77 0 1.34-.22 1.7-.64.37-.43.56-.93.56-1.5 0-.68-.21-1.2-.62-1.56a2.35 2.35 0 0 0-1.64-.56zm7.1 0v7.38h1.02v-3.17h2.34c.42 0 .73.05.93.14.34.16.53.48.55.97l.06 1.23c.02.29.03.48.05.58.02.1.05.18.09.25h1.26v-.17c-.16-.07-.27-.22-.33-.45a2.96 2.96 0 0 1-.08-.63l-.03-.99c-.02-.43-.1-.74-.25-.93a1.56 1.56 0 0 0-.67-.46 2 2 0 0 0 .78-.68c.2-.28.29-.64.29-1.08 0-.85-.36-1.43-1.07-1.75a3.6 3.6 0 0 0-1.43-.24zm7.62 0v7.38h5.6v-.88h-4.6v-2.5h4.19v-.86h-4.2v-2.24h4.54v-.9zm-13.7.86h2.05c.4 0 .71.05.94.15.41.2.62.56.62 1.1 0 .49-.15.83-.44 1.02-.28.19-.66.28-1.12.28H21.3zm7.1 0h2.51c.35 0 .64.05.85.15.39.19.58.55.58 1.07 0 .5-.14.83-.42 1.02-.28.18-.66.28-1.14.28h-2.38Z" fill="#782167"/>
</svg>
