<?xml version="1.0" encoding="UTF-8" standalone="no"?>
<svg
   xmlns:dc="http://purl.org/dc/elements/1.1/"
   xmlns:cc="http://creativecommons.org/ns#"
   xmlns:rdf="http://www.w3.org/1999/02/22-rdf-syntax-ns#"
   xmlns:svg="http://www.w3.org/2000/svg"
   xmlns="http://www.w3.org/2000/svg"
   id="svg834"
   version="1.1"
   viewBox="0 0 22.225 8.2020836"
   height="31"
   width="84">
  <defs
     id="defs828" />
  <metadata
     id="metadata831">
    <rdf:RDF>
      <cc:Work
         rdf:about="">
        <dc:format>image/svg+xml</dc:format>
        <dc:type
           rdf:resource="http://purl.org/dc/dcmitype/StillImage" />
        <dc:title></dc:title>
      </cc:Work>
    </rdf:RDF>
  </metadata>
  <g
     transform="translate(0,-288.79788)"
     id="layer1">
    <path
       id="text817"
       d="m 2.3659895,288.86631 c -1.39669769,0 -2.32372337,0.53493 -2.32372337,1.94253 0,2.50968 2.77121487,2.54234 2.77121487,4.29913 0,0.45829 -0.1852361,0.58927 -0.4798523,0.58927 -0.3382706,0 -0.4803692,-0.13098 -0.4803692,-0.58927 v -1.34245 H 0.04226613 v 1.44058 c 0,1.34213 1.12393357,1.73496 2.28056577,1.73496 1.5167253,0 2.3021496,-0.67661 2.3021496,-2.13878 0,-2.40057 -2.771722,-2.78268 -2.771722,-4.09208 0,-0.38191 0.087587,-0.60007 0.4803692,-0.60007 0.3600832,0 0.4798523,0.21816 0.4798523,0.60007 v 1.09123 h 1.8115005 v -1.22173 c 0,-1.29849 -1.036883,-1.71339 -2.258992,-1.71339 z m 2.760935,0.005 v 0.74289 h 0.6663511 v -0.74289 z m 12.0476355,0 v 5.34874 h 0.655554 v -5.34874 z m -2.373561,1.35477 c -0.298564,0 -0.558493,0.0727 -0.77937,0.21835 -0.155352,0.0971 -0.298435,0.23434 -0.429508,0.41151 v -0.51734 h -0.637062 v 3.98265 h 0.655047 v -0.5379 c 0.143212,0.17719 0.273431,0.30222 0.389938,0.37504 0.124731,0.0806 0.270269,0.13286 0.432072,0.16286 h 0.610856 c 0.249878,-0.0466 0.47698,-0.15034 0.679186,-0.31596 0.444191,-0.36409 0.666351,-0.97121 0.666351,-1.82075 0,-0.62868 -0.154119,-1.11141 -0.462385,-1.4488 -0.308256,-0.33982 -0.683371,-0.50966 -1.125125,-0.50966 z m -6.2077473,0.007 c -0.2742751,0 -0.5196788,0.0738 -0.7356948,0.22194 -0.1262214,0.0874 -0.2669679,0.22696 -0.422309,0.41871 v -0.55331 H 6.7873987 v 3.89942 h 0.6550371 v -2.06788 c 0,-0.50244 0.1011386,-0.84963 0.3026095,-1.04139 0.2038869,-0.19176 0.4295465,-0.2877 0.6771275,-0.2877 0.2718593,0 0.4573934,0.0913 0.556911,0.27332 0.06313,0.12136 0.094546,0.31392 0.094546,0.57849 v 2.54516 h 0.666351 v -2.26824 c 0,-0.40293 0.092461,-0.69079 0.2769212,-0.86312 0.186896,-0.17234 0.409056,-0.25842 0.666341,-0.25842 0.186895,0 0.344523,0.0488 0.47317,0.14591 0.131073,0.0971 0.196769,0.2751 0.196769,0.53482 v 2.70905 h 0.680727 v -2.59602 c 0,-0.34468 -0.05121,-0.61916 -0.153094,-0.82304 -0.189323,-0.37866 -0.545866,-0.5677 -1.070159,-0.5677 -0.245155,0 -0.466142,0.0512 -0.662752,0.15309 -0.1966094,0.0995 -0.3676084,0.25363 -0.5132365,0.46239 -0.087384,-0.1699 -0.184501,-0.29896 -0.291306,-0.38636 -0.1893223,-0.15291 -0.439389,-0.22912 -0.7500908,-0.22912 z m 11.8472683,0 c -0.548561,0 -0.992353,0.1954 -1.332176,0.5862 -0.339821,0.39078 -0.510164,0.89911 -0.510164,1.52534 0,0.63595 0.168673,1.13141 0.506058,1.48579 0.248824,0.25957 0.538291,0.42258 0.867733,0.49064 h 0.780394 c 0.04046,-0.007 0.08371,-0.0118 0.121767,-0.0211 0.293702,-0.068 0.539742,-0.19884 0.738788,-0.39303 0.118934,-0.11166 0.225918,-0.25526 0.320584,-0.43001 0.09713,-0.17719 0.154108,-0.33717 0.171079,-0.48038 h -0.644251 c -0.04851,0.17234 -0.131122,0.32414 -0.24763,0.4552 -0.203887,0.22573 -0.477208,0.33856 -0.819445,0.33856 -0.366526,0 -0.636974,-0.11918 -0.811741,-0.35706 -0.174777,-0.24029 -0.268389,-0.5584 -0.280519,-0.95404 h 2.858048 c 0,-0.39322 -0.01919,-0.67939 -0.05806,-0.85901 -0.04365,-0.26213 -0.130943,-0.4913 -0.262016,-0.68791 -0.135925,-0.20632 -0.334186,-0.37381 -0.593905,-0.50245 -0.259711,-0.13107 -0.527832,-0.19677 -0.804543,-0.19677 z m -15.3135955,0.10517 v 3.88145 h 0.025153 v 2.07455 h 0.2342693 v -0.19317 c 0.053586,0.0724 0.1035444,0.12534 0.1505291,0.15823 0.078938,0.0555 0.1761295,0.0827 0.2907886,0.0827 0.2048812,0 0.3647657,-0.079 0.4803593,-0.23684 0.1156036,-0.15789 0.1736539,-0.3557 0.1736539,-0.59441 0,-0.25188 -0.058756,-0.44256 -0.1762188,-0.57131 -0.1165382,-0.12969 -0.2687675,-0.19419 -0.4567276,-0.19419 -0.090173,0 -0.1741709,0.019 -0.25123,0.0576 -0.077049,0.0376 -0.1428641,0.0926 -0.1983097,0.16493 v -0.74804 h 0.3940543 v -3.88145 z m 9.5245685,0.46239 c 0.451468,0 0.762051,0.21513 0.931957,0.64477 0.08978,0.22331 0.135119,0.49024 0.135119,0.80094 0,0.50972 -0.102315,0.89301 -0.306199,1.1503 -0.20146,0.25487 -0.455037,0.38224 -0.760877,0.38224 -0.451479,0 -0.762051,-0.20126 -0.931957,-0.60418 -0.08978,-0.21117 -0.134612,-0.46708 -0.134612,-0.76807 0,-0.37379 0.04484,-0.68203 0.134612,-0.92477 0.16748,-0.45389 0.478053,-0.68123 0.931957,-0.68123 z m 5.748951,0.004 c 0.419913,0 0.719968,0.15763 0.899596,0.47318 0.09704,0.1699 0.158752,0.39673 0.185465,0.68072 h -2.166006 c 0.01213,-0.33496 0.11977,-0.61061 0.323666,-0.82663 0.203897,-0.21846 0.4563,-0.32727 0.757279,-0.32727 z M 6.7863647,294.2232 v 2.07095 h 0.253805 v -2.07095 z m 11.0802253,0 v 2.07095 h 0.253795 v -2.07095 z m -6.378825,0.13973 v 0.42128 h -0.204474 v 0.20756 h 0.204474 v 0.99926 c 0,0.0968 0.02087,0.17576 0.06323,0.23685 0.04225,0.0602 0.122543,0.0904 0.24096,0.0904 0.03668,0 0.07069,-0.002 0.101727,-0.006 0.03191,-0.004 0.06233,-0.01 0.09147,-0.0185 v -0.19986 c -0.01879,0.002 -0.03519,0.003 -0.04931,0.004 h -0.03957 c -0.04603,0 -0.07894,-0.005 -0.09863,-0.0154 -0.03569,-0.018 -0.05339,-0.0532 -0.05339,-0.10581 v -0.9854 h 0.240951 v -0.20756 h -0.240951 v -0.42127 z m 8.672246,0 v 0.42128 h -0.204483 v 0.20756 h 0.204483 v 0.99926 c 0,0.0968 0.02138,0.17576 0.06372,0.23685 0.04225,0.0602 0.122534,0.0904 0.240951,0.0904 0.03668,0 0.07069,-0.002 0.101727,-0.006 0.03191,-0.004 0.06233,-0.01 0.09147,-0.0185 v -0.19986 c -0.01879,0.002 -0.03519,0.003 -0.04931,0.004 h -0.03957 c -0.04603,0 -0.07894,-0.005 -0.09862,-0.0154 -0.03569,-0.018 -0.05339,-0.0532 -0.05339,-0.10581 v -0.9854 h 0.240951 v -0.20756 h -0.24096 v -0.42127 z m -12.1293171,0.37762 c -0.2170998,0 -0.3896302,0.0751 -0.5183868,0.22554 -0.1287567,0.15037 -0.1931698,0.35248 -0.1931698,0.60624 0,0.23683 0.061242,0.42569 0.1834069,0.56667 0.1221751,0.14003 0.2870503,0.21013 0.4947551,0.21013 0.2490526,0 0.4328468,-0.0795 0.5512639,-0.23839 0.1184171,-0.15882 0.177243,-0.35975 0.177243,-0.60315 0,-0.25187 -0.067008,-0.44264 -0.2013917,-0.57233 -0.1343936,-0.12969 -0.299179,-0.19471 -0.4937206,-0.19471 z m 8.9167841,0.007 c -0.115593,0 -0.216055,0.0283 -0.301575,0.0849 -0.06015,0.0376 -0.115713,0.0906 -0.166456,0.15926 v -0.20036 h -0.246608 v 2.10487 h 0.253796 v -0.77114 c 0.05548,0.0686 0.105425,0.11719 0.150529,0.14539 0.07705,0.0498 0.172451,0.0745 0.286166,0.0745 0.144733,0 0.27168,-0.0448 0.380692,-0.13409 0.171993,-0.14097 0.257911,-0.37594 0.257911,-0.70488 0,-0.24341 -0.05946,-0.43038 -0.178784,-0.56101 -0.119361,-0.13158 -0.264631,-0.19729 -0.435671,-0.1973 z m 2.146998,0 c -0.153194,0 -0.288303,0.0365 -0.404841,0.10994 -0.115604,0.0723 -0.175632,0.20181 -0.180335,0.38789 h 0.236844 c 0.0099,-0.078 0.02963,-0.13675 0.06064,-0.17622 0.05548,-0.0714 0.149535,-0.10738 0.28205,-0.10738 0.114659,0 0.202475,0.0196 0.263557,0.0591 0.06203,0.0386 0.09295,0.10111 0.09295,0.18753 0,0.0422 -0.006,0.075 -0.017,0.0976 -0.01969,0.0414 -0.05836,0.0654 -0.116618,0.073 l -0.404841,0.0509 c -0.14191,0.0179 -0.256818,0.0652 -0.344216,0.14231 -0.08738,0.0771 -0.131014,0.18569 -0.131014,0.32572 0,0.12782 0.04424,0.23455 0.132555,0.32007 0.08928,0.0847 0.204185,0.1269 0.344216,0.1269 0.116538,0 0.223274,-0.0247 0.320067,-0.0745 0.09683,-0.0498 0.170771,-0.10854 0.222459,-0.17622 0.0079,0.0602 0.02297,0.10635 0.04365,0.13923 0.03947,0.0621 0.103203,0.093 0.190605,0.093 0.03569,0 0.06363,-10e-4 0.08421,-0.004 0.02068,-0.003 0.051,-0.01 0.09047,-0.0211 v -0.18753 c -0.01601,0.003 -0.03111,0.005 -0.04523,0.007 -0.01412,9.6e-4 -0.02674,9.9e-4 -0.03797,9.9e-4 -0.0348,0 -0.05756,-0.007 -0.06889,-0.0236 -0.01037,-0.016 -0.0159,-0.0374 -0.0159,-0.0637 v -0.86979 c 0,-0.14285 -0.05498,-0.24778 -0.164914,-0.31544 -0.110892,-0.0678 -0.254959,-0.10175 -0.43258,-0.10175 z m -6.228297,0.003 c -0.212397,0 -0.384242,0.0752 -0.515812,0.22656 -0.131569,0.15131 -0.197275,0.34836 -0.197275,0.59083 -10e-6,0.24623 0.06512,0.43819 0.195735,0.5754 0.130635,0.13627 0.289833,0.20397 0.477793,0.20397 0.07705,0 0.146474,-0.007 0.207556,-0.022 0.113725,-0.0264 0.209107,-0.0775 0.286166,-0.15259 0.04603,-0.0433 0.08719,-0.0989 0.123815,-0.16645 0.03758,-0.0686 0.05965,-0.13054 0.06631,-0.18598 h -0.249171 c -0.01879,0.0667 -0.051,0.12547 -0.09604,0.17621 -0.07894,0.0874 -0.18447,0.13101 -0.316985,0.13101 -0.14191,0 -0.246746,-0.0462 -0.31442,-0.1382 -0.06771,-0.0931 -0.104207,-0.2157 -0.108913,-0.36889 h 1.106635 c 0,-0.15225 -0.0079,-0.26337 -0.02256,-0.3329 -0.0169,-0.10154 -0.0505,-0.19053 -0.101204,-0.26664 -0.0526,-0.0799 -0.129094,-0.1444 -0.229646,-0.19421 -0.100563,-0.0507 -0.204712,-0.0761 -0.311855,-0.0761 z m 1.677942,0 c -0.106195,0 -0.201501,0.0284 -0.285142,0.0858 -0.04891,0.0338 -0.103223,0.0876 -0.163374,0.16184 v -0.21423 h -0.250713 v 1.50993 h 0.253278 v -0.80044 c 0,-0.19454 0.03917,-0.32905 0.117145,-0.40329 0.07894,-0.0743 0.166665,-0.11149 0.262524,-0.11149 0.105265,0 0.176736,0.0354 0.21527,0.10581 0.02445,0.047 0.03698,0.12157 0.03698,0.22401 v 0.98538 h 0.257901 v -0.87801 c 0,-0.15601 0.0354,-0.26773 0.106868,-0.33446 0.07238,-0.0667 0.158801,-0.0997 0.258419,-0.0997 0.07238,0 0.133091,0.0184 0.182899,0.056 0.0508,0.0376 0.07606,0.10701 0.07606,0.20757 v 1.04857 h 0.264065 v -1.00491 c 0,-0.13345 -0.02008,-0.23959 -0.05955,-0.31853 -0.07326,-0.14661 -0.211084,-0.21989 -0.414087,-0.21989 -0.09494,0 -0.180752,0.0195 -0.256876,0.0591 -0.07615,0.0386 -0.142437,0.0979 -0.198827,0.17878 -0.03381,-0.0658 -0.07118,-0.11566 -0.112512,-0.14951 -0.07328,-0.0592 -0.169975,-0.0884 -0.290271,-0.0884 z m 6.994812,0 c -0.212397,0 -0.384242,0.0752 -0.515812,0.22656 -0.131571,0.15131 -0.197286,0.34836 -0.197286,0.59083 0,0.24623 0.06512,0.43819 0.195745,0.5754 0.130636,0.13627 0.289834,0.20397 0.477794,0.20397 0.07705,0 0.145956,-0.007 0.207048,-0.022 0.113715,-0.0264 0.209097,-0.0775 0.286156,-0.15259 0.04603,-0.0433 0.08768,-0.0989 0.124333,-0.16645 0.03758,-0.0686 0.05965,-0.13054 0.06631,-0.18598 h -0.249679 c -0.01879,0.0667 -0.0504,0.12547 -0.09554,0.17621 -0.07894,0.0874 -0.184998,0.13101 -0.317502,0.13101 -0.14192,0 -0.246756,-0.0462 -0.314421,-0.1382 -0.06771,-0.0931 -0.103704,-0.2157 -0.108406,-0.36889 h 1.106635 c 0,-0.15225 -0.0079,-0.26337 -0.02257,-0.3329 -0.0169,-0.10154 -0.0505,-0.19053 -0.101204,-0.26664 -0.0526,-0.0799 -0.129611,-0.1444 -0.230163,-0.19421 -0.100563,-0.0507 -0.204205,-0.0761 -0.311338,-0.0761 z m -11.9772486,0.007 c -0.1747967,0 -0.323934,0.0713 -0.4479882,0.2132 -0.1231195,0.14192 -0.1849577,0.33904 -0.1849577,0.59185 0,0.26785 0.061242,0.45992 0.1834168,0.57644 0.1231096,0.11561 0.2664806,0.17365 0.4300141,0.17365 0.1174719,0 0.2121678,-0.0189 0.2835908,-0.0564 0.071385,-0.0376 0.1321464,-0.095 0.1828988,-0.17211 0.003,0.2077 -0.01362,0.35228 -0.04931,0.4331 -0.06015,0.13722 -0.1871851,0.20551 -0.3817275,0.20551 -0.1231092,0 -0.2134208,-0.0278 -0.2707453,-0.0842 -0.036685,-0.0367 -0.061242,-0.089 -0.07347,-0.15669 H 8.9754949 c 0.013124,0.15506 0.075061,0.26876 0.1859817,0.34113 0.1109011,0.0733 0.2478995,0.10993 0.4104982,0.10993 0.2922694,0 0.4906882,-0.10228 0.5959522,-0.30721 0.05637,-0.11091 0.08481,-0.26245 0.08481,-0.45417 v -1.37276 h -0.234279 v 0.19009 c -0.04981,-0.063 -0.09852,-0.11095 -0.1464138,-0.14385 -0.088378,-0.0582 -0.1918972,-0.0874 -0.3103139,-0.0874 z m -1.5376715,0.20448 c 0.1748072,0 0.2979661,0.0695 0.3693883,0.20857 0.045136,0.0884 0.067306,0.20326 0.067306,0.34422 0,0.15602 -0.031018,0.29758 -0.094049,0.4254 -0.062037,0.12688 -0.1775308,0.19061 -0.3457564,0.19061 -0.1531837,0 -0.2649994,-0.0537 -0.3354771,-0.16081 -0.070488,-0.10715 -0.1058402,-0.24106 -0.1058402,-0.40177 0,-0.16728 0.035393,-0.31006 0.1058306,-0.42847 0.070488,-0.11842 0.1834963,-0.17776 0.338569,-0.17776 z m 8.8654051,0.009 c 0.174807,0 0.295391,0.0828 0.361177,0.24917 0.0348,0.0865 0.0519,0.19001 0.0519,0.31031 0,0.19736 -0.03927,0.34581 -0.118169,0.44543 -0.07804,0.0988 -0.176476,0.14796 -0.294894,0.14796 -0.174807,0 -0.294874,-0.0777 -0.360659,-0.23376 -0.0348,-0.0818 -0.05239,-0.18093 -0.05239,-0.29747 0,-0.14473 0.01759,-0.26411 0.05239,-0.35809 0.06482,-0.17575 0.184918,-0.26355 0.360659,-0.26355 z m -11.0704528,9.9e-4 c 0.1325146,0 0.2328774,0.0524 0.3005415,0.1567 0.068598,0.10431 0.1027589,0.23573 0.1027589,0.39455 0,0.17858 -0.0342,0.32255 -0.1027589,0.43157 -0.067704,0.10902 -0.1700153,0.16338 -0.3072224,0.16338 -0.1823232,0 -0.307292,-0.0834 -0.3740215,-0.24969 -0.035691,-0.0884 -0.053387,-0.20333 -0.053387,-0.34526 0,-0.19642 0.043545,-0.33728 0.1299795,-0.42281 0.087389,-0.0855 0.1885467,-0.12844 0.3041503,-0.12844 z m 7.0318038,0 c 0.162589,0 0.278779,0.0612 0.348332,0.18341 0.03758,0.0658 0.06154,0.15361 0.07198,0.26356 H 12.43211 c 0.005,-0.1297 0.04643,-0.23642 0.125357,-0.32007 0.07894,-0.0847 0.176815,-0.1269 0.293353,-0.1269 z m 8.672754,0 c 0.162588,0 0.278778,0.0612 0.348321,0.18341 0.03758,0.0658 0.06104,0.15361 0.07138,0.26356 h -0.838456 c 0.005,-0.1297 0.04643,-0.23642 0.125366,-0.32007 0.07894,-0.0847 0.176816,-0.1269 0.293354,-0.1269 z m -11.9150822,0.0107 c 0.1193626,0 0.2173194,0.0449 0.2943881,0.13512 0.07705,0.0903 0.1155941,0.22861 0.1155941,0.41563 0,0.12407 -0.02029,0.23269 -0.06164,0.32572 -0.07427,0.16447 -0.2024859,0.24661 -0.3848088,0.24661 -0.1165382,0 -0.2099416,-0.0436 -0.2794848,-0.13204 -0.068598,-0.0892 -0.1027482,-0.21932 -0.1027482,-0.38943 0,-0.14472 0.017597,-0.2616 0.052393,-0.35089 0.065815,-0.16729 0.1877415,-0.25072 0.3663066,-0.25072 z m 9.8297332,0.54408 v 0.20447 c 0,0.15601 -0.07019,0.2679 -0.211154,0.33651 -0.08361,0.0414 -0.170165,0.0621 -0.259451,0.0621 -0.07328,0 -0.136512,-0.0208 -0.190088,-0.0633 -0.05359,-0.0422 -0.08063,-0.10036 -0.08063,-0.17365 0,-0.0968 0.03917,-0.16698 0.117145,-0.21115 0.04603,-0.0264 0.114937,-0.0459 0.207039,-0.058 l 0.153611,-0.0195 c 0.04703,-0.006 0.09494,-0.0151 0.143858,-0.0282 0.04891,-0.0131 0.08868,-0.0296 0.119699,-0.0493 z"
       style="font-style:normal;font-weight:normal;font-size:10.97553825px;line-height:1.25;font-family:sans-serif;letter-spacing:0px;word-spacing:0px;fill:#ffffff;fill-opacity:1;stroke:none;stroke-width:0.27279228" />
  </g>
</svg>
